<?xml version="1.0" encoding="utf-8"?>
<!-- Generator: Adobe Illustrator 16.2.0, SVG Export Plug-In . SVG Version: 6.00 Build 0)  -->
<!DOCTYPE svg PUBLIC "-//W3C//DTD SVG 1.1//EN" "http://www.w3.org/Graphics/SVG/1.1/DTD/svg11.dtd">
<svg version="1.1" id="Capa_1" xmlns="http://www.w3.org/2000/svg" xmlns:xlink="http://www.w3.org/1999/xlink" x="0px" y="0px"
	 width="270.559px" height="270.559px" viewBox="0 0 270.559 270.559" enable-background="new 0 0 270.559 270.559"
	 xml:space="preserve">
<g>
	<path fill="#FFFFFF" d="M268.441,108.999l-33.305-24.831c-0.678-1.073-1.734-1.865-2.979-2.226L132.45,7.605
		c-0.104-0.077-0.222-0.125-0.325-0.196c-0.154-0.102-0.313-0.206-0.479-0.286c-0.161-0.081-0.325-0.142-0.488-0.2
		c-0.151-0.057-0.299-0.12-0.452-0.161c-0.181-0.049-0.361-0.077-0.544-0.109c-0.15-0.023-0.302-0.051-0.452-0.065
		c-0.181-0.014-0.358-0.007-0.532,0c-0.163,0.003-0.323,0.003-0.484,0.021c-0.167,0.021-0.333,0.059-0.501,0.095
		c-0.16,0.033-0.324,0.069-0.486,0.117c-0.168,0.057-0.329,0.131-0.493,0.2c-0.147,0.066-0.294,0.126-0.438,0.204
		c-0.173,0.094-0.331,0.21-0.49,0.322c-0.099,0.07-0.207,0.123-0.299,0.2L87.158,39.481V28.039c0-2.905-2.352-5.256-5.257-5.256
		H53.899c-2.905,0-5.257,2.351-5.257,5.256v42.924L1.93,109.143c-2.25,1.836-2.58,5.147-0.743,7.397
		c1.041,1.272,2.55,1.932,4.074,1.932c1.167,0,2.344-0.39,3.323-1.184l23.621-19.311v120.213c0,2.905,2.353,5.258,5.257,5.258
		c2.905,0,5.256-2.353,5.256-5.258V89.385l86.743-70.895l95.99,71.568v128.132c0,2.905,2.351,5.258,5.257,5.258
		c2.904,0,5.256-2.353,5.256-5.258V97.897l26.197,19.534c0.943,0.703,2.043,1.041,3.141,1.041c1.604,0,3.187-0.729,4.22-2.117
		C271.251,114.031,270.769,110.737,268.441,108.999z M76.645,48.078L59.156,62.37V33.299h17.489V48.078z"/>
	<path fill="#FFFFFF" d="M166.197,107.062c0-15.203-8.444-28.893-22.045-35.733c-1.085-0.546-2.375-0.491-3.411,0.146
		c-1.033,0.638-1.668,1.767-1.668,2.982v29.1h-25.721l-0.003-29.1c0-1.217-0.631-2.345-1.668-2.986
		c-1.033-0.638-2.327-0.695-3.414-0.146c-13.593,6.841-22.039,20.53-22.039,35.729c0,14.676,8.172,28.253,21.002,35.193
		l-0.004,28.526h-9.878c-3.46,0.008-6.276,2.826-6.276,6.283v9.264c0,1.004,0.26,1.94,0.677,2.778
		c-0.421,0.846-0.677,1.783-0.677,2.782l0.005,9.254c-0.005,0.989,0.244,1.93,0.672,2.789c-0.429,0.858-0.672,1.796-0.672,2.778
		l-0.005,9.264c0,1.003,0.26,1.94,0.677,2.779c-0.421,0.842-0.677,1.778-0.677,2.777v9.262c-0.003,1.681,0.652,3.262,1.841,4.448
		c1.184,1.181,2.758,1.837,4.433,1.842c0.003,0,0.007,0,0.01,0h9.871v7.919c0,10.472,8.517,18.985,18.986,18.985l0.01-3.505v3.505
		c10.465,0,18.979-8.519,18.979-18.985v-8.911c1,0.64,2.152,0.987,3.367,0.987h13.914c2.26,0,4.229-1.211,5.335-3.008
		c1.109,1.801,3.073,3.008,5.34,3.008h10.193c3.456,0,6.276-2.815,6.276-6.281l0.004-53.731c0-1.681-0.657-3.251-1.842-4.441
		c-1.188-1.188-2.77-1.839-4.445-1.839h-10.201c-1.704,0-3.251,0.688-4.381,1.798V162.19c0-0.209-0.01-0.418-0.034-0.623
		c0.161-2.005-0.648-3.979-2.195-5.291l-18.632-15.73C159.131,133.236,166.197,120.656,166.197,107.062z M182.62,177.793
		l-0.008,52.28h-8.735v-52.28H182.62z M98.074,177.789h12.649h12.265l-0.003,7.813H98.074V177.789z M122.993,192.611v3.908v3.907
		l-12.263-0.003l-12.649,0.003l-0.003-7.815H122.993L122.993,192.611z M98.078,207.439l12.649-0.004l12.258,0.004l0.003,3.949v3.859
		H98.074L98.078,207.439z M110.731,230.073c-0.003,0-0.003,0-0.007,0H98.078v-7.816h24.915v7.813h-12.263V230.073z M138.188,245.004
		c0,6.607-5.368,11.978-11.971,11.978h-0.014c-6.604,0-11.975-5.376-11.975-11.978v-7.922h9.49c0.428,0,0.847-0.045,1.257-0.127
		c0.063-0.015,0.12-0.041,0.18-0.056c0.343-0.082,0.681-0.175,1.006-0.312c0.015-0.003,0.028-0.014,0.042-0.023
		c0.722-0.312,1.388-0.753,1.959-1.324c0.553-0.552,0.977-1.197,1.284-1.893c0.02-0.038,0.044-0.072,0.061-0.105
		c0.13-0.309,0.221-0.634,0.298-0.958c0.017-0.075,0.053-0.147,0.07-0.227c0.081-0.411,0.126-0.832,0.126-1.256v-9.265
		c0-0.473-0.061-0.928-0.157-1.365c-0.032-0.147-0.087-0.277-0.13-0.417c-0.084-0.288-0.178-0.572-0.301-0.839
		c-0.024-0.052-0.033-0.106-0.057-0.154c0.023-0.051,0.036-0.109,0.061-0.16c0.123-0.268,0.217-0.552,0.301-0.839
		c0.042-0.141,0.094-0.271,0.13-0.414c0.098-0.438,0.158-0.893,0.158-1.365l-0.004-9.264c0-0.455-0.061-0.903-0.15-1.342
		c-0.032-0.145-0.084-0.28-0.126-0.421c-0.084-0.287-0.174-0.571-0.298-0.842c-0.027-0.056-0.034-0.12-0.063-0.176
		c0.024-0.051,0.035-0.115,0.06-0.167c0.13-0.28,0.224-0.571,0.312-0.87c0.039-0.133,0.093-0.263,0.12-0.399
		c0.095-0.438,0.154-0.883,0.151-1.341l0.003-9.269c0-0.472-0.063-0.927-0.157-1.368c-0.032-0.145-0.087-0.273-0.13-0.414
		c-0.087-0.291-0.182-0.578-0.308-0.85c-0.021-0.051-0.033-0.104-0.057-0.157c0.023-0.048,0.032-0.099,0.057-0.149
		c0.126-0.271,0.221-0.556,0.305-0.85c0.042-0.137,0.094-0.267,0.13-0.406c0.099-0.438,0.158-0.895,0.158-1.365l0.003-9.265
		c0-0.526-0.083-1.029-0.207-1.52c-0.034-0.144-0.083-0.277-0.13-0.418c-0.114-0.362-0.262-0.701-0.438-1.026
		c-0.037-0.074-0.055-0.161-0.101-0.235c0.084-0.037,0.154-0.109,0.234-0.15c0.421-0.205,0.819-0.445,1.185-0.753l7.645-6.454v78.49
		L138.188,245.004L138.188,245.004z M161.688,161.359c-0.026,0.271-0.011,0.508,0.068,0.832v67.883h-12.464v-67.324
		c0-1.03-0.455-2.013-1.242-2.676l-4.306-3.632c-1.312-1.092-3.209-1.089-4.508,0.011l-12.652,10.688l-5.039-5.975l19.284-16.279
		c0.438,0.109,0.79,0.13,1.311-0.014c0.003,0,0.014-0.004,0.024-0.004L161.688,161.359z M140.203,136.929
		c-0.556,0.261-1.018,0.657-1.359,1.133c-0.263,0.075-0.51,0.202-0.752,0.313c-0.134,0.059-0.274,0.1-0.404,0.164
		c-0.383,0.209-0.746,0.444-1.081,0.729l-20.146,17.011c-1.282,1.086-2.067,2.603-2.204,4.278c-0.14,1.673,0.382,3.302,1.461,4.575
		l4.764,5.646h-6.252l0.003-30.683c0-1.362-0.784-2.598-2.016-3.173c-11.536-5.412-18.986-17.133-18.983-29.86
		c0-10.516,4.902-20.158,13.104-26.321l0.003,26.324c0,1.935,1.569,3.504,3.504,3.504h32.729c1.938,0,3.504-1.57,3.504-3.504V80.737
		c8.207,6.163,13.109,15.804,13.106,26.325C159.188,119.789,151.735,131.51,140.203,136.929z"/>
</g>
</svg>
