<?xml version="1.0" encoding="UTF-8" standalone="no"?>
<!-- Created with Inkscape (http://www.inkscape.org/) -->

<svg
   xmlns:dc="http://purl.org/dc/elements/1.1/"
   xmlns:cc="http://creativecommons.org/ns#"
   xmlns:rdf="http://www.w3.org/1999/02/22-rdf-syntax-ns#"
   xmlns:svg="http://www.w3.org/2000/svg"
   xmlns="http://www.w3.org/2000/svg"
   xmlns:sodipodi="http://sodipodi.sourceforge.net/DTD/sodipodi-0.dtd"
   xmlns:inkscape="http://www.inkscape.org/namespaces/inkscape"
   width="66"
   height="76"
   id="svg2"
   version="1.1"
   inkscape:version="0.48.4 r9939"
   sodipodi:docname="logo.svg">
  <defs
     id="defs4" />
  <sodipodi:namedview
     id="base"
     pagecolor="#ffffff"
     bordercolor="#666666"
     borderopacity="1.0"
     inkscape:pageopacity="0.0"
     inkscape:pageshadow="2"
     inkscape:zoom="1.979899"
     inkscape:cx="132.60961"
     inkscape:cy="28.854164"
     inkscape:document-units="px"
     inkscape:current-layer="layer1"
     showgrid="false"
     inkscape:window-width="1366"
     inkscape:window-height="705"
     inkscape:window-x="-8"
     inkscape:window-y="-8"
     inkscape:window-maximized="1"
     width="166px" />
  <metadata
     id="metadata7">
    <rdf:RDF>
      <cc:Work
         rdf:about="">
        <dc:format>image/svg+xml</dc:format>
        <dc:type
           rdf:resource="http://purl.org/dc/dcmitype/StillImage" />
        <dc:title></dc:title>
      </cc:Work>
    </rdf:RDF>
  </metadata>
  <g
     inkscape:label="Layer 1"
     inkscape:groupmode="layer"
     id="layer1"
     transform="translate(0,-976.362)">
    <g
       id="g3019"
       transform="matrix(0.23469875,0,0,0.23448323,-107.87975,891.41506)">
	<path
   id="path3021"
   d="m 600,408.782 45.889,26.495 c 7.463,-1.914 14.886,-4.22 22.259,-6.911 V 401.614 L 600,362.273 500.386,419.782 c 15.325,8.417 31.875,14.448 49.142,18.139 L 600,408.782 z"
   inkscape:connector-curvature="0"
   style="fill:#01a96c" />

	<path
   id="path3023"
   d="m 700.065,582.104 -82.315,47.528 c 42.829,-6.556 85.818,-25.928 122.598,-57.987 v -46.131 c -12.781,10.967 -26.299,20.405 -40.282,28.328 v 28.262 z"
   inkscape:connector-curvature="0"
   style="fill:#01a96c" />

	<path
   id="path3025"
   d="M 566.521,583.687 600,603.018 646.17,576.364 c -26.615,7.443 -53.683,9.891 -79.649,7.323 z"
   inkscape:connector-curvature="0"
   style="fill:#01a96c" />

	<path
   id="path3027"
   d="m 499.932,582.104 v -17.717 c -14.6,-7.505 -28.168,-17.091 -40.28,-28.781 v 48.942 c 12.146,11.426 25.712,20.784 40.28,28.087 v -30.531 z"
   inkscape:connector-curvature="0"
   style="fill:#01a96c" />

	<path
   id="path3029"
   d="m 531.854,624.95 c 17.53,4.922 35.952,7.308 54.715,7.181 l -54.715,-31.597 v 24.416 z"
   inkscape:connector-curvature="0"
   style="fill:#01a96c" />

	<path
   id="path3031"
   d="m 600,639.877 -13.43,-7.746 c -18.763,0.127 -37.185,-2.259 -54.715,-7.181 v 22.094 L 600,686.39 740.348,605.361 v -33.715 c -36.779,32.059 -79.769,51.431 -122.598,57.987 L 600,639.877 z"
   inkscape:connector-curvature="0"
   style="fill:#01a96c" />

	<path
   id="path3033"
   d="m 499.932,628.614 v -15.979 c -14.568,-7.303 -28.133,-16.661 -40.28,-28.087 v 20.812 l 40.28,23.254 z"
   inkscape:connector-curvature="0"
   style="fill:#01a96c" />

	<path
   id="path3035"
   d="m 499.932,466.555 49.595,-28.633 c -17.267,-3.691 -33.817,-9.723 -49.142,-18.139 l -37.098,21.422 c 11.107,10.627 23.435,19.491 36.644,26.621 v -1.271 z"
   inkscape:connector-curvature="0"
   style="fill:#01a96c" />

	<path
   id="path3037"
   d="m 668.147,428.366 c -7.373,2.69 -14.796,4.997 -22.259,6.911 l 22.259,12.847 v -19.758 z"
   inkscape:connector-curvature="0"
   style="fill:#01a96c" />

	<path
   id="path3039"
   d="M 657.617,478.907 600,445.641 536.2,482.476 c 38.135,10.771 80.508,9.542 121.417,-3.569 z"
   inkscape:connector-curvature="0"
   style="fill:#01a96c" />

	<path
   id="path3041"
   d="m 733.01,439.064 -32.944,-19.019 v 40.592 c 11.322,-6.206 22.348,-13.391 32.944,-21.573 z"
   inkscape:connector-curvature="0"
   style="fill:#01a96c" />

	<path
   id="path3043"
   d="m 499.932,467.826 c -13.209,-7.13 -25.537,-15.994 -36.644,-26.621 l -3.636,2.097 v 43.344 c 12.077,11.958 25.649,21.78 40.28,29.489 v -48.309 z"
   inkscape:connector-curvature="0"
   style="fill:#01a96c" />

	<path
   id="path3045"
   d="m 531.854,529.128 c 42.599,12.761 90.728,10.376 136.293,-6.983 v -37.157 l -10.53,-6.081 c -40.909,13.111 -83.282,14.34 -121.417,3.569 l -4.346,2.512 v 44.14 z"
   inkscape:connector-curvature="0"
   style="fill:#01a96c" />

	<path
   id="path3047"
   d="m 700.065,466.555 v 40.686 c 13.974,-7.786 27.486,-17.075 40.282,-27.883 v -36.056 l -7.338,-4.238 c -10.596,8.181 -21.622,15.366 -32.944,21.574 v 5.917 z"
   inkscape:connector-curvature="0"
   style="fill:#01a96c" />

	<path
   id="path3049"
   d="m 499.932,529.721 v -13.585 c -14.63,-7.708 -28.203,-17.531 -40.28,-29.489 v 48.96 c 12.111,11.689 25.68,21.275 40.28,28.781 v -34.667 z"
   inkscape:connector-curvature="0"
   style="fill:#01a96c" />

	<path
   id="path3051"
   d="m 700.065,525.514 v 28.328 c 13.983,-7.923 27.501,-17.361 40.282,-28.328 v -46.156 c -12.796,10.808 -26.309,20.097 -40.282,27.883 v 18.273 z"
   inkscape:connector-curvature="0"
   style="fill:#01a96c" />

	<path
   id="path3053"
   d="m 668.147,525.514 v -3.369 c -45.565,17.359 -93.694,19.744 -136.293,6.983 v 0.593 33.951 l 34.667,20.015 c 25.965,2.569 53.033,0.12 79.648,-7.323 l 21.978,-12.692 v -38.158 z"
   inkscape:connector-curvature="0"
   style="fill:#01a96c" />

</g>
  </g>
  <g
     inkscape:groupmode="layer"
     id="layer2"
     inkscape:label="Слой"
     transform="translate(0,-976.362)" />
</svg>
