<?xml version="1.0" encoding="UTF-8" standalone="no"?>
<!-- Created with Inkscape (http://www.inkscape.org/) -->

<svg
   xmlns:dc="http://purl.org/dc/elements/1.1/"
   xmlns:cc="http://creativecommons.org/ns#"
   xmlns:rdf="http://www.w3.org/1999/02/22-rdf-syntax-ns#"
   xmlns:svg="http://www.w3.org/2000/svg"
   xmlns="http://www.w3.org/2000/svg"
   xmlns:sodipodi="http://sodipodi.sourceforge.net/DTD/sodipodi-0.dtd"
   xmlns:inkscape="http://www.inkscape.org/namespaces/inkscape"
   width="16"
   height="15"
   id="svg2"
   version="1.1"
   inkscape:version="0.48.4 r9939"
   sodipodi:docname="pay.svg">
  <defs
     id="defs4" />
  <sodipodi:namedview
     id="base"
     pagecolor="#ffffff"
     bordercolor="#666666"
     borderopacity="1.0"
     inkscape:pageopacity="0.0"
     inkscape:pageshadow="2"
     inkscape:zoom="7.9195959"
     inkscape:cx="61.255912"
     inkscape:cy="3.2580299"
     inkscape:document-units="px"
     inkscape:current-layer="layer1"
     showgrid="false"
     inkscape:window-width="1366"
     inkscape:window-height="705"
     inkscape:window-x="-8"
     inkscape:window-y="-8"
     inkscape:window-maximized="1"
     width="16px" />
  <metadata
     id="metadata7">
    <rdf:RDF>
      <cc:Work
         rdf:about="">
        <dc:format>image/svg+xml</dc:format>
        <dc:type
           rdf:resource="http://purl.org/dc/dcmitype/StillImage" />
        <dc:title></dc:title>
      </cc:Work>
    </rdf:RDF>
  </metadata>
  <g
     inkscape:label="Layer 1"
     inkscape:groupmode="layer"
     id="layer1"
     transform="translate(0,-1037.3619)">
    <g
       id="g3230"
       transform="matrix(0.0281191,0,0,0.0281191,-0.72665378,1032.9993)">
	<g
   id="g3232">
		<path
   id="path3234"
   d="M 550.057,650.751 H 45.223 c -10.613,0 -18.92,8.768 -18.92,18.92 0,10.152 8.768,18.92 18.92,18.92 h 505.296 c 10.613,0 18.92,-8.768 18.92,-18.92 0,-10.152 -8.768,-18.92 -19.382,-18.92 z"
   inkscape:connector-curvature="0"
   style="fill:#01a96c" />

		<path
   id="path3236"
   d="m 26.303,483.242 -0.461,89.984 c 0,5.076 1.846,10.152 5.537,13.844 3.691,3.692 8.307,5.537 13.382,5.537 l 89.523,-0.461 c 5.076,0 9.69,-1.846 13.382,-5.537 L 456.843,277.432 c 7.383,-7.383 7.383,-19.381 0,-27.226 l -88.601,-89.523 c -7.383,-7.383 -19.381,-7.383 -27.226,0 L 279.181,222.98 31.841,469.859 c -3.23,3.693 -5.538,8.307 -5.538,13.383 l 0,0 z m 328.558,-281.951 62.297,62.297 -35.071,35.071 -62.296,-62.296 35.07,-35.072 z m -290.257,290.257 227.96,-227.96 62.297,62.297 -227.96,227.5 -62.758,0.461 0.461,-62.298 0,0 z"
   inkscape:connector-curvature="0"
   style="fill:#01a96c" />

	</g>

</g>
  </g>
  <g
     inkscape:groupmode="layer"
     id="layer2"
     inkscape:label="Слой"
     transform="translate(0,-1037.3619)" />
</svg>
