<?xml version="1.0" encoding="UTF-8" standalone="no"?>
<!-- Created with Inkscape (http://www.inkscape.org/) -->

<svg
   xmlns:dc="http://purl.org/dc/elements/1.1/"
   xmlns:cc="http://creativecommons.org/ns#"
   xmlns:rdf="http://www.w3.org/1999/02/22-rdf-syntax-ns#"
   xmlns:svg="http://www.w3.org/2000/svg"
   xmlns="http://www.w3.org/2000/svg"
   xmlns:sodipodi="http://sodipodi.sourceforge.net/DTD/sodipodi-0.dtd"
   xmlns:inkscape="http://www.inkscape.org/namespaces/inkscape"
   width="64"
   height="56"
   id="svg2"
   version="1.1"
   inkscape:version="0.48.4 r9939"
   sodipodi:docname="marker.svg">
  <defs
     id="defs4" />
  <sodipodi:namedview
     id="base"
     pagecolor="#ffffff"
     bordercolor="#666666"
     borderopacity="1.0"
     inkscape:pageopacity="0.0"
     inkscape:pageshadow="2"
     inkscape:zoom="3.959798"
     inkscape:cx="117.70595"
     inkscape:cy="10.991232"
     inkscape:document-units="px"
     inkscape:current-layer="layer1"
     showgrid="false"
     inkscape:window-width="1366"
     inkscape:window-height="705"
     inkscape:window-x="-8"
     inkscape:window-y="-8"
     inkscape:window-maximized="1"
     width="64px" />
  <metadata
     id="metadata7">
    <rdf:RDF>
      <cc:Work
         rdf:about="">
        <dc:format>image/svg+xml</dc:format>
        <dc:type
           rdf:resource="http://purl.org/dc/dcmitype/StillImage" />
        <dc:title></dc:title>
      </cc:Work>
    </rdf:RDF>
  </metadata>
  <g
     inkscape:label="Layer 1"
     inkscape:groupmode="layer"
     id="layer1"
     transform="translate(0,-996.36188)">
    <g
       id="g3249"
       transform="matrix(0.10915115,0,0,0.10915115,0,978.41514)">
	<path
   id="path3251"
   d="M 579.247,164.421 H 16.032 C 7.178,164.421 0,171.599 0,180.454 v 361.411 c 0,8.855 7.178,16.033 16.032,16.033 H 215.02 c -3.521,21.33 -11.645,59.242 -28.914,96.848 -2.279,4.963 -1.875,10.746 1.073,15.344 2.948,4.598 8.034,7.381 13.496,7.381 h 193.927 c 5.462,0 10.548,-2.781 13.496,-7.381 2.948,-4.598 3.353,-10.381 1.073,-15.344 -17.21,-37.477 -25.356,-75.475 -28.896,-96.848 h 198.971 c 8.855,0 16.033,-7.178 16.033,-16.033 V 180.454 c 10e-4,-8.854 -7.177,-16.033 -16.032,-16.033 z m -16.032,361.411 h -30.311 v -5.982 c 0,-8.855 -7.178,-16.033 -16.032,-16.033 -8.855,0 -16.033,7.178 -16.033,16.033 v 5.982 h -20.221 v -5.982 c 0,-8.855 -7.178,-16.033 -16.032,-16.033 -8.854,0 -16.033,7.178 -16.033,16.033 v 5.982 H 32.066 V 196.486 h 531.149 v 329.346 z"
   inkscape:connector-curvature="0"
   style="fill:#01a96c" />

	<path
   id="path3253"
   d="m 216.841,431.552 h 154.11 l -5.242,-20.749 c -2.062,-8.166 0.357,-16.938 6.313,-22.895 4.545,-4.543 10.584,-7.044 17.007,-7.044 1.347,0 2.692,0.123 4.021,0.348 v -77.741 c 0,-8.939 -7.271,-16.212 -16.211,-16.212 H 216.841 c -8.941,0 -16.214,7.272 -16.214,16.212 v 111.867 c 0,8.941 7.273,16.214 16.214,16.214 z m 135.947,-122.444 -55.949,41.031 -55.944,-41.031 h 111.893 z"
   inkscape:connector-curvature="0"
   style="fill:#01a96c" />

	<path
   id="path3255"
   d="m 388.338,398.064 c -2.143,0 -4.154,0.832 -5.67,2.347 -2.174,2.176 -2.914,5.458 -1.882,8.356 l 9.813,27.583 c 1.133,3.191 4.17,5.334 7.553,5.334 0.915,0 1.819,-0.158 2.69,-0.465 2.786,-0.994 4.689,-3.383 5.192,-6.105 l 16.724,16.719 c 1.513,1.516 3.524,2.348 5.668,2.348 2.144,0 4.155,-0.832 5.668,-2.346 1.518,-1.514 2.35,-3.527 2.35,-5.67 0,-2.143 -0.832,-4.154 -2.35,-5.668 l -16.232,-16.236 c 3.045,-0.314 5.69,-2.359 6.732,-5.286 0.719,-2.02 0.606,-4.194 -0.314,-6.131 -0.917,-1.932 -2.536,-3.395 -4.553,-4.112 l -28.702,-10.207 c -0.866,-0.305 -1.769,-0.461 -2.687,-0.461 z"
   inkscape:connector-curvature="0"
   style="fill:#01a96c" />

</g>
  </g>
  <g
     inkscape:groupmode="layer"
     id="layer2"
     inkscape:label="Слой"
     transform="translate(0,-996.36188)" />
</svg>
