<?xml version="1.0" encoding="utf-8"?>
<!-- Generator: Adobe Illustrator 16.2.0, SVG Export Plug-In . SVG Version: 6.00 Build 0)  -->
<!DOCTYPE svg PUBLIC "-//W3C//DTD SVG 1.1//EN" "http://www.w3.org/Graphics/SVG/1.1/DTD/svg11.dtd">
<svg version="1.1" id="Layer_1" xmlns="http://www.w3.org/2000/svg" xmlns:xlink="http://www.w3.org/1999/xlink" x="0px" y="0px"
	 width="595.279px" height="841.89px" viewBox="0 0 595.279 841.89" enable-background="new 0 0 595.279 841.89"
	 xml:space="preserve">
<g>
	<g>
		<path fill="#FFFFFF" d="M595.28,420.944c0-164.093-133.507-297.601-297.6-297.601c-6.676,0-12.016,5.34-12.016,12.016v110.083
			h-5.583c-55.71,0-101.103,45.271-101.103,101.102v148.922c0,55.709,45.271,101.102,101.103,101.102h35.075
			c55.709,0,101.102-45.271,101.102-101.102V346.423c0-55.709-45.271-101.102-101.102-101.102h-5.583v-97.825
			c145.402,6.311,261.675,126.589,261.675,273.448c0,96.612-49.397,184.12-132.051,234.245
			c-85.445,51.705-189.702,52.555-285.949,2.307c-39.566-20.754-71.487-52.674-92.241-92.363
			C-3.683,440.97,17.678,304.186,115.502,216.92c4.977-4.369,5.341-12.016,0.971-16.992c-4.369-4.976-12.016-5.34-16.991-0.971
			c-48.67,43.451-82.168,102.437-94.305,166.157c-13.108,69.303-1.214,142.368,34.469,210.942
			c22.939,44.18,58.379,79.619,102.437,102.559c50.976,26.701,104.136,39.93,156.083,39.93c53.767,0,106.32-14.32,153.533-42.965
			C541.634,621.207,595.28,525.929,595.28,420.944z M315.278,269.353c42.48,0,77.071,34.591,77.071,77.07v148.922
			c0,42.479-34.591,77.07-77.071,77.07h-35.075c-42.479,0-77.07-34.592-77.07-77.07V346.423c0-42.479,34.591-77.07,77.07-77.07
			H315.278L315.278,269.353z"/>
		<path fill="#FFFFFF" d="M297.68,390.602c6.675,0,12.015-5.34,12.015-12.016v-59.472c0-6.675-5.34-12.016-12.015-12.016
			c-6.676,0-12.016,5.34-12.016,12.016v59.472C285.664,385.14,291.004,390.602,297.68,390.602z"/>
	</g>
</g>
</svg>
