<?xml version="1.0" encoding="UTF-8" standalone="no"?>
<!-- Created with Inkscape (http://www.inkscape.org/) -->

<svg
   xmlns:dc="http://purl.org/dc/elements/1.1/"
   xmlns:cc="http://creativecommons.org/ns#"
   xmlns:rdf="http://www.w3.org/1999/02/22-rdf-syntax-ns#"
   xmlns:svg="http://www.w3.org/2000/svg"
   xmlns="http://www.w3.org/2000/svg"
   xmlns:sodipodi="http://sodipodi.sourceforge.net/DTD/sodipodi-0.dtd"
   xmlns:inkscape="http://www.inkscape.org/namespaces/inkscape"
   width="64"
   height="64"
   id="svg2"
   version="1.1"
   inkscape:version="0.48.4 r9939"
   sodipodi:docname="logo.svg">
  <defs
     id="defs4" />
  <sodipodi:namedview
     id="base"
     pagecolor="#ffffff"
     bordercolor="#666666"
     borderopacity="1.0"
     inkscape:pageopacity="0.0"
     inkscape:pageshadow="2"
     inkscape:zoom="1.979899"
     inkscape:cx="187.59608"
     inkscape:cy="90.837081"
     inkscape:document-units="px"
     inkscape:current-layer="layer1"
     showgrid="false"
     inkscape:window-width="1366"
     inkscape:window-height="705"
     inkscape:window-x="-8"
     inkscape:window-y="-8"
     inkscape:window-maximized="1"
     width="64px" />
  <metadata
     id="metadata7">
    <rdf:RDF>
      <cc:Work
         rdf:about="">
        <dc:format>image/svg+xml</dc:format>
        <dc:type
           rdf:resource="http://purl.org/dc/dcmitype/StillImage" />
        <dc:title></dc:title>
      </cc:Work>
    </rdf:RDF>
  </metadata>
  <g
     inkscape:label="Layer 1"
     inkscape:groupmode="layer"
     id="layer1"
     transform="translate(0,-988.36196)">
    <g
       id="g3214"
       transform="matrix(0.10751153,0,0,0.10751153,0,975.10557)">
	<path
   id="path3216"
   d="m 581.306,370.107 c 7.718,0 13.974,-6.256 13.974,-13.974 0,-7.718 -6.256,-13.974 -13.974,-13.974 h -68.684 v -36.864 h 68.684 c 7.718,0 13.974,-6.256 13.974,-13.974 0,-7.718 -6.256,-13.974 -13.974,-13.974 h -68.684 v -57.413 c 0,-7.718 -6.256,-13.974 -13.974,-13.974 h -57.412 v -68.684 c 0,-7.718 -6.256,-13.974 -13.974,-13.974 -7.718,0 -13.974,6.256 -13.974,13.974 v 68.684 h -36.865 v -68.684 c 0,-7.718 -6.257,-13.974 -13.974,-13.974 -7.718,0 -13.975,6.256 -13.975,13.974 v 68.684 h -36.862 v -68.684 c 0,-7.718 -6.256,-13.974 -13.974,-13.974 -7.718,0 -13.974,6.256 -13.974,13.974 V 205.96 H 246.8 v -68.684 c 0,-7.718 -6.256,-13.974 -13.974,-13.974 -7.718,0 -13.974,6.256 -13.974,13.974 V 205.96 H 181.99 v -68.684 c 0,-7.718 -6.256,-13.974 -13.974,-13.974 -7.718,0 -13.974,6.256 -13.974,13.974 V 205.96 H 96.631 c -7.718,0 -13.974,6.256 -13.974,13.974 v 57.413 H 13.974 C 6.256,277.349 0,283.604 0,291.322 c 0,7.718 6.256,13.974 13.974,13.974 H 82.658 V 342.16 H 13.974 C 6.256,342.16 0,348.416 0,356.134 c 0,7.717 6.256,13.974 13.974,13.974 h 68.684 v 36.864 H 13.974 C 6.256,406.971 0,413.228 0,420.945 c 0,7.718 6.256,13.974 13.974,13.974 h 68.684 v 36.863 H 13.974 C 6.256,471.783 0,478.039 0,485.757 c 0,7.717 6.256,13.973 13.974,13.973 h 68.684 v 36.865 H 13.974 C 6.256,536.595 0,542.851 0,550.568 c 0,7.719 6.256,13.975 13.974,13.975 h 68.684 v 57.412 c 0,7.717 6.256,13.973 13.974,13.973 h 57.412 v 68.684 c 0,7.719 6.256,13.975 13.974,13.975 7.718,0 13.974,-6.256 13.974,-13.975 v -68.684 h 36.864 v 68.684 c 0,7.719 6.256,13.975 13.974,13.975 7.718,0 13.974,-6.256 13.974,-13.975 v -68.684 h 36.864 v 68.684 c 0,7.719 6.256,13.975 13.974,13.975 7.718,0 13.974,-6.256 13.974,-13.975 v -68.684 h 36.862 v 68.684 c 0,7.719 6.257,13.975 13.975,13.975 7.717,0 13.974,-6.256 13.974,-13.975 v -68.684 h 36.863 v 68.684 c 0,7.719 6.257,13.975 13.975,13.975 7.717,0 13.974,-6.256 13.974,-13.975 v -68.684 h 57.412 c 7.718,0 13.974,-6.256 13.974,-13.973 v -57.412 h 68.685 c 7.718,0 13.974,-6.256 13.974,-13.975 0,-7.717 -6.256,-13.973 -13.974,-13.973 H 512.626 V 499.73 h 68.684 c 7.718,0 13.974,-6.256 13.974,-13.973 0,-7.719 -6.256,-13.975 -13.974,-13.975 h -68.684 v -36.863 h 68.684 c 7.718,0 13.974,-6.256 13.974,-13.974 0,-7.718 -6.256,-13.974 -13.974,-13.974 h -68.684 v -36.864 h 68.68 z m -96.631,36.864 h -12.326 c -7.718,0 -13.974,6.256 -13.974,13.974 0,7.718 6.256,13.974 13.974,13.974 h 12.326 v 36.863 h -12.326 c -7.718,0 -13.974,6.256 -13.974,13.975 0,7.717 6.256,13.973 13.974,13.973 h 12.326 v 36.865 h -12.326 c -7.718,0 -13.974,6.256 -13.974,13.973 0,7.719 6.256,13.975 13.974,13.975 h 12.326 v 43.438 h -43.438 v -12.326 c 0,-7.717 -6.256,-13.973 -13.974,-13.973 -7.718,0 -13.974,6.256 -13.974,13.973 v 12.326 h -36.865 v -12.326 c 0,-7.717 -6.257,-13.973 -13.974,-13.973 -7.718,0 -13.975,6.256 -13.975,13.973 v 12.326 h -36.862 v -12.326 c 0,-7.717 -6.256,-13.973 -13.974,-13.973 -7.718,0 -13.974,6.256 -13.974,13.973 v 12.326 h -36.864 v -12.326 c 0,-7.717 -6.256,-13.973 -13.974,-13.973 -7.718,0 -13.974,6.256 -13.974,13.973 v 12.326 H 181.99 v -12.326 c 0,-7.717 -6.256,-13.973 -13.974,-13.973 -7.718,0 -13.974,6.256 -13.974,13.973 v 12.326 h -43.438 v -43.438 h 12.326 c 7.718,0 13.974,-6.256 13.974,-13.975 0,-7.717 -6.256,-13.973 -13.974,-13.973 H 110.604 V 499.73 h 12.326 c 7.718,0 13.974,-6.256 13.974,-13.973 0,-7.719 -6.256,-13.975 -13.974,-13.975 h -12.326 v -36.863 h 12.326 c 7.718,0 13.974,-6.256 13.974,-13.974 0,-7.718 -6.256,-13.974 -13.974,-13.974 h -12.326 v -36.864 h 12.326 c 7.718,0 13.974,-6.256 13.974,-13.974 0,-7.718 -6.256,-13.974 -13.974,-13.974 h -12.326 v -36.864 h 12.326 c 7.718,0 13.974,-6.256 13.974,-13.974 0,-7.718 -6.256,-13.974 -13.974,-13.974 H 110.604 V 233.91 h 43.438 v 12.326 c 0,7.718 6.256,13.974 13.974,13.974 7.718,0 13.974,-6.256 13.974,-13.974 V 233.91 h 36.864 v 12.326 c 0,7.718 6.256,13.974 13.974,13.974 7.718,0 13.974,-6.256 13.974,-13.974 V 233.91 h 36.864 v 12.326 c 0,7.718 6.256,13.974 13.974,13.974 7.718,0 13.974,-6.256 13.974,-13.974 V 233.91 h 36.862 v 12.326 c 0,7.718 6.257,13.974 13.975,13.974 7.717,0 13.974,-6.256 13.974,-13.974 V 233.91 h 36.863 v 12.326 c 0,7.718 6.257,13.974 13.975,13.974 7.717,0 13.974,-6.256 13.974,-13.974 V 233.91 h 43.438 v 43.439 h -12.326 c -7.718,0 -13.974,6.256 -13.974,13.974 0,7.718 6.256,13.974 13.974,13.974 h 12.326 v 36.864 h -12.326 c -7.718,0 -13.974,6.256 -13.974,13.974 0,7.717 6.256,13.974 13.974,13.974 h 12.326 l 0,36.862 0,0 z"
   inkscape:connector-curvature="0"
   style="fill:#01a96c" />

	<path
   id="path3218"
   d="M 372.782,331.828 H 222.496 c -7.718,0 -13.974,6.256 -13.974,13.974 V 496.09 c 0,7.717 6.256,13.973 13.974,13.973 h 150.286 c 7.718,0 13.974,-6.256 13.974,-13.973 V 345.801 c 0,-7.717 -6.256,-13.973 -13.974,-13.973 l 0,0 z M 358.809,482.115 H 236.47 v -122.34 h 122.339 v 122.34 z"
   inkscape:connector-curvature="0"
   style="fill:#01a96c" />

</g>
  </g>
  <g
     inkscape:groupmode="layer"
     id="layer2"
     inkscape:label="Слой"
     transform="translate(0,-988.36196)" />
</svg>
