<?xml version="1.0" encoding="UTF-8" standalone="no"?>
<!-- Created with Inkscape (http://www.inkscape.org/) -->

<svg
   xmlns:dc="http://purl.org/dc/elements/1.1/"
   xmlns:cc="http://creativecommons.org/ns#"
   xmlns:rdf="http://www.w3.org/1999/02/22-rdf-syntax-ns#"
   xmlns:svg="http://www.w3.org/2000/svg"
   xmlns="http://www.w3.org/2000/svg"
   xmlns:sodipodi="http://sodipodi.sourceforge.net/DTD/sodipodi-0.dtd"
   xmlns:inkscape="http://www.inkscape.org/namespaces/inkscape"
   width="16"
   height="16"
   id="svg2"
   version="1.1"
   inkscape:version="0.48.4 r9939"
   sodipodi:docname="pulse.svg">
  <defs
     id="defs4" />
  <sodipodi:namedview
     id="base"
     pagecolor="#ffffff"
     bordercolor="#666666"
     borderopacity="1.0"
     inkscape:pageopacity="0.0"
     inkscape:pageshadow="2"
     inkscape:zoom="0.49497475"
     inkscape:cx="511.12389"
     inkscape:cy="401.88359"
     inkscape:document-units="px"
     inkscape:current-layer="layer1"
     showgrid="false"
     inkscape:window-width="1366"
     inkscape:window-height="705"
     inkscape:window-x="-8"
     inkscape:window-y="-8"
     inkscape:window-maximized="1"
     width="16px" />
  <metadata
     id="metadata7">
    <rdf:RDF>
      <cc:Work
         rdf:about="">
        <dc:format>image/svg+xml</dc:format>
        <dc:type
           rdf:resource="http://purl.org/dc/dcmitype/StillImage" />
        <dc:title></dc:title>
      </cc:Work>
    </rdf:RDF>
  </metadata>
  <g
     inkscape:label="Layer 1"
     inkscape:groupmode="layer"
     id="layer1"
     transform="translate(0,-1036.3619)">
    <g
       id="g3325"
       transform="matrix(0.02689559,0,0,0.02689559,-1.2450428e-7,1033.0404)">
	<g
   id="g3327">
		<path
   id="path3329"
   d="m 594.996,592.984 c 1.261,9.664 -1.684,18.066 -8.823,25.207 l -83.813,83.18 c -3.781,4.203 -8.717,7.775 -14.809,10.715 -6.092,2.941 -12.077,4.832 -17.957,5.67 -0.42,0 -1.684,0.109 -3.785,0.318 -2.098,0.209 -4.828,0.316 -8.189,0.316 -7.984,0 -20.904,-1.365 -38.759,-4.098 -17.855,-2.73 -39.701,-9.453 -65.536,-20.164 -25.842,-10.715 -55.144,-26.785 -87.912,-48.209 -32.768,-21.424 -67.64,-50.834 -104.61,-88.227 C 131.395,528.704 107.028,500.977 87.702,474.51 68.376,448.041 52.832,423.569 41.068,401.092 29.303,378.615 20.481,358.24 14.599,339.965 8.718,321.69 4.727,305.935 2.626,292.701 0.525,279.467 -0.315,269.069 0.105,261.507 c 0.421,-7.563 0.631,-11.764 0.631,-12.604 0.84,-5.881 2.73,-11.868 5.671,-17.96 2.941,-6.092 6.513,-11.028 10.714,-14.809 l 83.813,-83.814 c 5.882,-5.882 12.604,-8.823 20.166,-8.823 5.462,0 10.293,1.576 14.494,4.726 4.201,3.151 7.772,7.037 10.713,11.659 l 67.43,127.927 c 3.781,6.722 4.831,14.074 3.15,22.056 -1.68,7.982 -5.251,14.704 -10.713,20.166 l -30.879,30.879 c -0.84,0.84 -1.575,2.206 -2.205,4.096 -0.631,1.891 -0.945,3.466 -0.945,4.726 1.681,8.823 5.461,18.906 11.343,30.249 5.042,10.083 12.813,22.371 23.316,36.865 10.504,14.494 25.418,31.193 44.743,50.099 18.905,19.326 35.71,34.344 50.414,45.059 14.701,10.709 26.994,18.59 36.867,23.631 9.873,5.043 17.435,8.088 22.686,9.135 l 7.875,1.576 c 0.84,0 2.209,-0.314 4.098,-0.945 1.89,-0.631 3.256,-1.365 4.097,-2.205 l 35.919,-36.551 c 7.566,-6.721 16.385,-10.082 26.469,-10.082 7.145,0 12.813,1.26 17.015,3.781 h 0.629 l 121.624,71.84 c 8.824,5.468 14.075,12.398 15.756,20.8 z"
   inkscape:connector-curvature="0"
   style="fill:#01a96c" />

	</g>

</g>
  </g>
  <g
     inkscape:groupmode="layer"
     id="layer2"
     inkscape:label="Слой"
     transform="translate(0,-1036.3619)" />
</svg>
