<?xml version="1.0" encoding="UTF-8" standalone="no"?>
<!-- Created with Inkscape (http://www.inkscape.org/) -->

<svg
   xmlns:dc="http://purl.org/dc/elements/1.1/"
   xmlns:cc="http://creativecommons.org/ns#"
   xmlns:rdf="http://www.w3.org/1999/02/22-rdf-syntax-ns#"
   xmlns:svg="http://www.w3.org/2000/svg"
   xmlns="http://www.w3.org/2000/svg"
   xmlns:sodipodi="http://sodipodi.sourceforge.net/DTD/sodipodi-0.dtd"
   xmlns:inkscape="http://www.inkscape.org/namespaces/inkscape"
   width="16"
   height="16"
   id="svg2"
   version="1.1"
   inkscape:version="0.48.4 r9939"
   sodipodi:docname="tel.svg">
  <defs
     id="defs4" />
  <sodipodi:namedview
     id="base"
     pagecolor="#ffffff"
     bordercolor="#666666"
     borderopacity="1.0"
     inkscape:pageopacity="0.0"
     inkscape:pageshadow="2"
     inkscape:zoom="22.4"
     inkscape:cx="11.173735"
     inkscape:cy="8.7550441"
     inkscape:document-units="px"
     inkscape:current-layer="layer1"
     showgrid="false"
     inkscape:window-width="1366"
     inkscape:window-height="705"
     inkscape:window-x="-8"
     inkscape:window-y="-8"
     inkscape:window-maximized="1"
     width="16px" />
  <metadata
     id="metadata7">
    <rdf:RDF>
      <cc:Work
         rdf:about="">
        <dc:format>image/svg+xml</dc:format>
        <dc:type
           rdf:resource="http://purl.org/dc/dcmitype/StillImage" />
        <dc:title></dc:title>
      </cc:Work>
    </rdf:RDF>
  </metadata>
  <g
     inkscape:label="Layer 1"
     inkscape:groupmode="layer"
     id="layer1"
     transform="translate(0,-1036.3619)">
    <g
       id="g3376"
       transform="matrix(0.03947381,0,0,0.03947381,2.340991e-5,1036.2863)">
	<g
   id="g3378">
		<path
   id="path3380"
   d="m 204.583,216.671 c 50.664,0 91.739,-48.075 91.739,-107.378 0,-82.237 -41.073,-107.377 -91.739,-107.377 -50.668,0 -91.74,25.14 -91.74,107.377 10e-4,59.303 41.073,107.378 91.74,107.378 z"
   inkscape:connector-curvature="0"
   style="fill:#01a96c" />

		<path
   id="path3382"
   d="M 407.163,374.717 360.88,270.454 c -2.117,-4.771 -5.836,-8.728 -10.466,-11.138 l -71.829,-37.393 c -1.584,-0.822 -3.502,-0.663 -4.926,0.415 -20.316,15.366 -44.203,23.488 -69.076,23.488 -24.877,0 -48.763,-8.122 -69.078,-23.488 -1.428,-1.078 -3.346,-1.237 -4.93,-0.415 L 58.75,259.316 c -4.631,2.41 -8.347,6.365 -10.465,11.138 L 2.001,374.717 c -3.191,7.188 -2.537,15.412 1.75,22.006 4.285,6.592 11.537,10.525 19.399,10.525 h 362.861 c 7.863,0 15.117,-3.936 19.401,-10.527 4.286,-6.592 4.943,-14.819 1.751,-22.004 z"
   inkscape:connector-curvature="0"
   style="fill:#01a96c" />

	</g>

</g>
  </g>
  <g
     inkscape:groupmode="layer"
     id="layer2"
     inkscape:label="Слой"
     transform="translate(0,-1036.3619)" />
</svg>
