<?xml version="1.0" encoding="UTF-8" standalone="no"?>
<!-- Created with Inkscape (http://www.inkscape.org/) -->

<svg
   xmlns:dc="http://purl.org/dc/elements/1.1/"
   xmlns:cc="http://creativecommons.org/ns#"
   xmlns:rdf="http://www.w3.org/1999/02/22-rdf-syntax-ns#"
   xmlns:svg="http://www.w3.org/2000/svg"
   xmlns="http://www.w3.org/2000/svg"
   xmlns:sodipodi="http://sodipodi.sourceforge.net/DTD/sodipodi-0.dtd"
   xmlns:inkscape="http://www.inkscape.org/namespaces/inkscape"
   width="64"
   height="62"
   id="svg2"
   version="1.1"
   inkscape:version="0.48.4 r9939"
   sodipodi:docname="monitor.svg">
  <defs
     id="defs4" />
  <sodipodi:namedview
     id="base"
     pagecolor="#ffffff"
     bordercolor="#666666"
     borderopacity="1.0"
     inkscape:pageopacity="0.0"
     inkscape:pageshadow="2"
     inkscape:zoom="0.49497475"
     inkscape:cx="488.83585"
     inkscape:cy="388.76196"
     inkscape:document-units="px"
     inkscape:current-layer="layer1"
     showgrid="false"
     inkscape:window-width="1366"
     inkscape:window-height="705"
     inkscape:window-x="-8"
     inkscape:window-y="-8"
     inkscape:window-maximized="1"
     width="64px" />
  <metadata
     id="metadata7">
    <rdf:RDF>
      <cc:Work
         rdf:about="">
        <dc:format>image/svg+xml</dc:format>
        <dc:type
           rdf:resource="http://purl.org/dc/dcmitype/StillImage" />
        <dc:title></dc:title>
      </cc:Work>
    </rdf:RDF>
  </metadata>
  <g
     inkscape:label="Layer 1"
     inkscape:groupmode="layer"
     id="layer1"
     transform="translate(0,-990.36188)">
    <g
       id="g3268"
       transform="matrix(0.14824769,0,0,0.14824769,4.6375498e-5,988.74731)">
	<g
   id="g3270">
		<g
   id="g3272">
			<path
   id="path3274"
   d="m 268.881,290.663 -47.721,-21.976 -22.928,-19.332 -36.837,36.642 h -0.026 l 15.896,106.272 c 0.055,0.364 -0.037,0.737 -0.255,1.037 l -16.622,22.75 c -0.265,0.362 -0.687,0.577 -1.136,0.577 -0.45,0 -0.871,-0.215 -1.136,-0.577 l -16.621,-22.75 c -0.219,-0.3 -0.312,-0.673 -0.256,-1.037 l 15.896,-106.275 h -0.024 L 120.275,249.355 97.35,268.688 49.628,290.664 c -7.062,2.896 -13.999,7.293 -17.529,14.951 0,0 -51.871,123.495 -23.736,123.495 h 301.781 c 28.137,0 -23.733,-123.495 -23.733,-123.495 -3.075,-7.347 -10.47,-12.056 -17.53,-14.952 z"
   inkscape:connector-curvature="0"
   style="fill:#01a96c" />

			<path
   id="path3276"
   d="M 412.094,31.436 C 394.555,18.188 371.321,10.891 346.665,10.891 c -24.651,0 -47.891,7.297 -65.428,20.545 -17.995,13.595 -27.905,31.809 -27.905,51.292 0,16.65 7.457,32.728 21.061,45.52 v 49.522 c 0,1.99 1.09,3.824 2.84,4.777 0.813,0.442 1.709,0.663 2.604,0.663 1.026,0 2.053,-0.289 2.949,-0.868 l 45.284,-29.199 c 6.092,0.944 12.336,1.422 18.596,1.422 24.654,0 47.89,-7.296 65.429,-20.547 C 430.09,120.423 440,102.209 440,82.728 440,63.244 430.09,45.03 412.094,31.436 z m -12.056,86.624 c -14.088,10.644 -33.043,16.505 -53.372,16.505 -5.232,0 -10.457,-0.398 -15.531,-1.186 l -7.515,-1.165 -6.389,4.12 -22.84,14.727 v -22.813 -8.646 l -6.299,-5.923 c -9.521,-8.953 -14.764,-19.944 -14.764,-30.95 0,-13.061 7.09,-25.609 19.961,-35.333 14.088,-10.643 33.042,-16.504 53.372,-16.504 20.33,0 39.285,5.861 53.373,16.503 12.873,9.723 19.961,22.271 19.961,35.333 0.005,13.059 -7.086,25.607 -19.957,35.332 z"
   inkscape:connector-curvature="0"
   style="fill:#01a96c" />

			<path
   id="path3278"
   d="m 159.253,259.182 c 36.398,0 85.229,-45.474 86.057,-121.729 0.527,-52.916 -24.673,-84.584 -86.057,-84.584 -61.387,0 -86.593,31.668 -86.057,84.584 0.83,76.255 43.456,121.729 86.057,121.729 z M 141.957,158.703 c 44.506,4.74 83.303,-57.5 82.674,-1.772 -0.377,33.36 -31.321,83.733 -65.372,83.733 -35.738,0 -60.396,-41.864 -65.37,-83.715 -5.391,-45.386 77.911,-35.046 48.068,1.754 z"
   inkscape:connector-curvature="0"
   style="fill:#01a96c" />

		</g>

	</g>

</g>
  </g>
  <g
     inkscape:groupmode="layer"
     id="layer2"
     inkscape:label="Слой"
     transform="translate(0,-990.36188)" />
</svg>
