<?xml version="1.0" encoding="utf-8"?>
<!-- Generator: Adobe Illustrator 19.2.0, SVG Export Plug-In . SVG Version: 6.00 Build 0)  -->
<svg version="1.1" id="Layer_1" xmlns="http://www.w3.org/2000/svg" xmlns:xlink="http://www.w3.org/1999/xlink" x="0px" y="0px"
	 viewBox="0 0 505.8 595.3" style="enable-background:new 0 0 505.8 595.3;" xml:space="preserve">
<style type="text/css">
	.st0{fill:#FFFFFF;}
</style>
<g>
	<g>
		<g>
			<path class="st0" d="M504.1,495.4l-87-152.8c8.8-4.1,14.1-13.5,13.5-24.1l-6.5-54.1l37-38.8c8.2-8.2,8.8-22.3,0.6-32.3l-37-40
				l7.6-54.7c1.2-11.8-7.1-23.5-18.8-25.9l-53.5-10.6l-25.9-47.6C329,3.3,316-1.4,304.3,3.3h-0.6l-49.4,22.9L206.1,2.8
				c-5.3-2.9-11.8-3.5-17.6-1.8c-5.9,1.8-10.6,5.9-13.5,11.2l-26.5,47.6L95,69.2c-12.3,2.4-20.6,13.5-19.4,26.5l6.5,54.1l-37,38.8
				c-8.2,8.2-8.8,22.3-0.6,32.3l37,40l-7.6,54.7c-1.2,10.6,5.3,20.6,15.3,24.7L1.6,495.4c-2.4,3.5-1.8,8.2,0,11.8
				c2.4,3.5,5.9,5.9,10,5.9h94.1l42.9,74.7c2.4,3.5,5.9,5.9,10,5.9c4.1,0,8.2-2.4,10-5.9l84.1-143.4l84.1,145.2
				c2.4,3.5,5.9,5.9,10,5.9c4.1,0,8.2-2.4,10-5.9l42.9-76.4h94.1c4.1,0,8.2-2.4,10-5.9C506.5,503.6,506.5,498.9,504.1,495.4z
				 M159.1,558.2l-36.4-62.9c-2.4-3.5-5.9-5.9-10-5.9H31.5L112.6,346l33.5,5.9l25.9,47.6c5.3,11.2,18.2,15.9,30,11.2h0.6l24.1-11.2
				l11.8,20.6L159.1,558.2z M193.2,389.5c-0.6,0-0.6,0-0.6,0l-25.9-48.8c-3.5-5.9-9.4-10.6-16.5-11.2l-54.1-10l7.6-54.1
				c1.2-7.1-1.2-14.7-5.9-19.4l-36.4-40l37-38.8c5.3-5.3,7.6-12.3,6.5-19.4l-6.5-53.5c0,0,0-0.6,0.6-1.2l53.5-9.4
				c6.5-1.2,12.9-5.3,16.5-11.8l26.5-47.6L243.7,48c6.5,3.5,14.7,3.5,21.2,0l48.8-22.3c0.6,0,0.6,0,0.6,0l25.9,48.8
				c3.5,5.9,9.4,10.6,15.9,11.2l53.5,10.6l-7.6,54.1c-1.2,7.1,1.2,14.7,5.9,19.4l37,40l-37.6,38.8c-5.3,5.3-7.6,12.3-6.5,19.4
				l6.5,54.1l-52.9,8.8c-6.5,1.2-12.9,5.3-16.5,11.8l-26.5,47.6l-48.2-23.5c-6.5-3.5-14.7-3.5-21.2,0L193.2,389.5z M393,489.5
				c-4.1,0-8.2,2.4-10,5.9L346.6,560l-82.9-143.4c-0.6-1.8-1.2-2.9-2.4-4.1l-12.9-22.9l4.1-1.8l48.2,23.5c3.5,1.8,7.1,2.4,10.6,2.4
				c8.2,0,16.5-4.1,20.6-11.8l26.5-47.6l35.3-6.5l80.5,141.7L393,489.5L393,489.5z"/>
			<path class="st0" d="M370.1,207.3c0-64.7-52.9-117.6-117.6-117.6c-64.7,0-117.6,52.9-117.6,117.6s52.9,117.6,117.6,117.6
				C317.2,324.9,370.1,272,370.1,207.3z M252.6,301.4c-51.7,0-94.1-42.3-94.1-94.1c0-51.7,42.3-94.1,94.1-94.1
				c51.7,0,94.1,42.3,94.1,94.1C346.6,259,304.3,301.4,252.6,301.4z"/>
		</g>
	</g>
</g>
</svg>
