<?xml version="1.0" encoding="utf-8"?>
<!-- Generator: Adobe Illustrator 16.2.0, SVG Export Plug-In . SVG Version: 6.00 Build 0)  -->
<!DOCTYPE svg PUBLIC "-//W3C//DTD SVG 1.1//EN" "http://www.w3.org/Graphics/SVG/1.1/DTD/svg11.dtd">
<svg version="1.1" id="Layer_1" xmlns="http://www.w3.org/2000/svg" xmlns:xlink="http://www.w3.org/1999/xlink" x="0px" y="0px"
	 width="595.279px" height="841.89px" viewBox="0 0 595.279 841.89" enable-background="new 0 0 595.279 841.89"
	 xml:space="preserve">
<g>
	<g>
		<path fill="#FFFFFF" d="M454.241,599.494h29.788c7.295,0,13.132-5.838,13.132-13.133v-35.867c0-7.295-5.837-13.131-13.132-13.131
			h-29.788c-4.134-21.035-12.401-40.488-23.831-57.631l21.156-21.156c5.106-5.107,5.106-13.496,0-18.602l-25.411-25.412
			c-5.106-5.106-13.496-5.106-18.603,0l-21.156,21.033c-17.144-11.549-36.597-19.696-57.631-23.83v-29.789
			c0-7.295-5.836-13.131-13.131-13.131h-35.868c-7.295,0-13.131,5.836-13.131,13.131v29.789
			c-21.034,4.134-40.488,12.402-57.631,23.83l-21.156-21.155c-5.106-5.106-13.496-5.106-18.603,0l-25.411,25.411
			c-5.106,5.107-5.106,13.496,0,18.604l21.155,21.156c-11.55,17.143-19.696,36.596-23.83,57.631h-29.788
			c-7.296,0-13.132,5.836-13.132,13.131v35.867c0,7.295,5.836,13.131,13.132,13.131h29.788l63.589-31.125
			c0-51.309,41.703-93.014,93.013-93.014c51.309,0,93.012,41.705,93.012,93.014"/>
	</g>
	<path fill="#FFFFFF" d="M595.28,621.257V220.512c0-25.046-20.305-45.351-45.351-45.351H45.351C20.305,175.161,0,195.466,0,220.512
		v400.866c0,25.047,20.305,45.352,45.351,45.352h504.578C574.975,666.73,595.28,646.302,595.28,621.257z M45.351,197.168h504.578
		c12.888,0,23.344,10.456,23.344,23.344v54.105H22.007v-54.105C22.007,207.624,32.463,197.168,45.351,197.168z M22.007,621.257
		V296.625h551.266v324.633c0,12.887-10.456,23.344-23.344,23.344H45.351C32.463,644.601,22.007,634.144,22.007,621.257z"/>
	<path fill="#FFFFFF" d="M297.64,464.412c-57.388,0-103.955,46.689-103.955,103.955c0,6.08,4.985,11.064,11.064,11.064
		s11.064-4.984,11.064-11.064c0-45.229,36.719-81.947,81.948-81.947s81.948,36.719,81.948,81.947c0,6.08,4.984,11.064,11.063,11.064
		c6.08,0,11.064-4.984,11.064-11.064C401.595,510.978,355.028,464.412,297.64,464.412z"/>
	<path fill="#FFFFFF" d="M484.152,526.298h-21.034c-4.013-15.928-10.335-31.004-18.725-45.107l14.834-14.834
		c4.62-4.619,7.052-10.699,7.052-17.143c0-6.445-2.554-12.523-7.052-17.145l-25.412-25.411c-9.483-9.483-24.803-9.483-34.165,0
		l-14.833,14.833c-14.104-8.389-29.181-14.59-45.108-18.724v-20.791c0-13.375-10.821-24.195-24.195-24.195h-35.867
		c-13.375,0-24.195,10.821-24.195,24.195v21.034c-15.928,4.012-31.005,10.335-45.108,18.725l-14.833-14.834
		c-4.62-4.62-10.7-7.052-17.144-7.052c-6.444,0-12.523,2.553-17.144,7.052l-25.411,25.412c-4.62,4.619-7.053,10.699-7.053,17.143
		s2.554,12.523,7.053,17.145l14.833,14.832c-8.39,14.104-14.59,29.182-18.724,45.109h-21.034c-13.375,0-24.196,10.82-24.196,24.195
		v35.867c0,13.375,10.821,24.195,24.196,24.195h29.788c6.079,0,11.064-4.984,11.064-11.064s-4.985-11.064-11.064-11.064h-29.788
		c-1.216,0-2.189-0.973-2.189-2.188v-35.869c0-1.215,0.974-2.188,2.189-2.188h29.788c5.228,0,9.849-3.77,10.821-8.875
		c3.769-19.211,11.307-37.328,22.25-53.619c2.918-4.377,2.31-10.215-1.338-13.982l-21.155-21.156
		c-0.486-0.486-0.608-1.094-0.608-1.459s0.122-0.973,0.608-1.459l25.411-25.412c0.486-0.486,1.094-0.607,1.459-0.607
		c0.364,0,0.973,0.121,1.58,0.607l21.156,21.156c3.769,3.77,9.605,4.256,13.982,1.338c16.292-10.943,34.408-18.359,53.618-22.25
		c5.107-0.973,8.876-5.593,8.876-10.822v-29.91c0-1.216,0.973-2.188,2.188-2.188h35.867c1.216,0,2.188,0.973,2.188,2.188v29.789
		c0,5.228,3.77,9.848,8.876,10.822c19.211,3.768,37.327,11.307,53.619,22.25c4.377,2.918,10.213,2.309,13.982-1.338l21.155-21.156
		c0.852-0.852,2.188-0.852,3.04,0l25.411,25.412c0.486,0.486,0.608,1.094,0.608,1.459c0,0.363-0.122,0.973-0.608,1.58
		l-21.155,21.156c-3.77,3.768-4.256,9.604-1.338,13.982c10.942,16.291,18.359,34.408,22.25,53.617
		c0.973,5.107,5.593,8.877,10.821,8.877h29.788c1.216,0,2.188,0.973,2.188,2.188v35.869c0,1.215-0.973,2.188-2.188,2.188h-29.788
		c-6.079,0-11.064,4.984-11.064,11.064s4.985,11.064,11.064,11.064h29.788c13.374,0,24.195-10.822,24.195-24.195v-35.867
		C508.225,537.119,497.405,526.298,484.152,526.298z"/>
	<path fill="#FFFFFF" d="M99.456,246.167c2.918,0,5.715-1.216,7.781-3.283c2.067-2.067,3.283-4.863,3.283-7.781
		s-1.216-5.715-3.283-7.782c-2.066-2.067-4.863-3.283-7.781-3.283s-5.714,1.216-7.781,3.283c-2.066,2.067-3.283,4.864-3.283,7.782
		s1.217,5.714,3.283,7.781C93.742,245.072,96.538,246.167,99.456,246.167z"/>
	<path fill="#FFFFFF" d="M138.364,246.167c2.918,0,5.715-1.216,7.781-3.283c2.067-2.067,3.283-4.863,3.283-7.781
		s-1.216-5.715-3.283-7.782c-2.066-2.067-4.863-3.283-7.781-3.283s-5.714,1.216-7.781,3.283s-3.283,4.864-3.283,7.782
		s1.216,5.714,3.283,7.781C132.65,245.072,135.446,246.167,138.364,246.167z"/>
	<path fill="#FFFFFF" d="M60.549,246.167c2.918,0,5.715-1.216,7.781-3.283c2.067-2.067,3.283-4.863,3.283-7.781
		s-1.216-5.715-3.283-7.782c-2.066-2.067-4.863-3.283-7.781-3.283s-5.714,1.216-7.781,3.283c-2.066,2.067-3.283,4.864-3.283,7.782
		s1.217,5.714,3.283,7.781C54.835,245.072,57.631,246.167,60.549,246.167z"/>
</g>
</svg>
